{
  "accessors": [
    {
      "bufferView": 2,
      "componentType": 5126,
      "count": 65532,
      "max": [
        0.98567700386047363,
        0.82387995719909668,
        1.2613829374313354
      ],
      "min": [
        0.11697900295257568,
        0,
        0
      ],
      "type": "VEC3"
    },
    {
      "bufferView": 2,
      "byteOffset": 786384,
      "componentType": 5126,
      "count": 65532,
      "max": [
        0.99996620416641235,
        0.9999922513961792,
        0.99999749660491943
      ],
      "min": [
        -0.99992579221725464,
        -0.99999856948852539,
        -0.99949663877487183
      ],
      "type": "VEC3"
    },
    {
      "bufferView": 3,
      "componentType": 5126,
      "count": 65532,
      "max": [
        0.99998730421066284,
        0.99992305040359497,
        0.99996227025985718,
        1
      ],
      "min": [
        -0.9999765157699585,
        -0.99969446659088135,
        -0.99999856948852539,
        -1
      ],
      "type": "VEC4"
    },
    {
      "bufferView": 1,
      "componentType": 5126,
      "count": 65532,
      "max": [
        0.99926799535751343,
        0.99925398826599121
      ],
      "min": [
        0.00073199998587369919,
        0.00074599997606128454
      ],
      "type": "VEC2"
    },
    {
      "bufferView": 0,
      "componentType": 5125,
      "count": 338307,
      "max": [
        65531
      ],
      "min": [
        0
      ],
      "type": "SCALAR"
    },
    {
      "bufferView": 2,
      "byteOffset": 1572768,
      "componentType": 5126,
      "count": 65532,
      "max": [
        0.93800699710845947,
        0.66745597124099731,
        1.2908729314804077
      ],
      "min": [
        0.00036400556564331055,
        0.26199400424957275,
        0.00047299987636506557
      ],
      "type": "VEC3"
    },
    {
      "bufferView": 2,
      "byteOffset": 2359152,
      "componentType": 5126,
      "count": 65532,
      "max": [
        0.99998301267623901,
        0.99996870756149292,
        0.99999511241912842
      ],
      "min": [
        -0.99997127056121826,
        -0.99999338388442993,
        -0.99998360872268677
      ],
      "type": "VEC3"
    },
    {
      "bufferView": 3,
      "byteOffset": 1048512,
      "componentType": 5126,
      "count": 65532,
      "max": [
        0.99998807907104492,
        0.99957722425460815,
        0.99999195337295532,
        1
      ],
      "min": [
        -0.99982303380966187,
        -0.99992489814758301,
        -0.99996548891067505,
        -1
      ],
      "type": "VEC4"
    },
    {
      "bufferView": 1,
      "byteOffset": 524256,
      "componentType": 5126,
      "count": 65532,
      "max": [
        0.99926799535751343,
        0.99925398826599121
      ],
      "min": [
        0.00073199998587369919,
        0.00074599997606128454
      ],
      "type": "VEC2"
    },
    {
      "bufferView": 0,
      "byteOffset": 1353228,
      "componentType": 5125,
      "count": 325029,
      "max": [
        65531
      ],
      "min": [
        0
      ],
      "type": "SCALAR"
    },
    {
      "bufferView": 2,
      "byteOffset": 3145536,
      "componentType": 5126,
      "count": 65532,
      "max": [
        0.93214297294616699,
        0.72079598903656006,
        1.2167119979858398
      ],
      "min": [
        0,
        0.0099009871482849121,
        0.00087699992582201958
      ],
      "type": "VEC3"
    },
    {
      "bufferView": 2,
      "byteOffset": 3931920,
      "componentType": 5126,
      "count": 65532,
      "max": [
        0.99998354911804199,
        0.99999016523361206,
        0.99999445676803589
      ],
      "min": [
        -0.99999821186065674,
        -0.99999964237213135,
        -0.99965882301330566
      ],
      "type": "VEC3"
    },
    {
      "bufferView": 3,
      "byteOffset": 2097024,
      "componentType": 5126,
      "count": 65532,
      "max": [
        0.99998033046722412,
        0.99994832277297974,
        0.9999580979347229,
        1
      ],
      "min": [
        -0.99836915731430054,
        -0.99997055530548096,
        -0.99993544816970825,
        -1
      ],
      "type": "VEC4"
    },
    {
      "bufferView": 1,
      "byteOffset": 1048512,
      "componentType": 5126,
      "count": 65532,
      "max": [
        0.99926799535751343,
        0.99900597333908081
      ],
      "min": [
        0.00073199998587369919,
        0.092840999364852905
      ],
      "type": "VEC2"
    },
    {
      "bufferView": 0,
      "byteOffset": 2653344,
      "componentType": 5125,
      "count": 327888,
      "max": [
        65531
      ],
      "min": [
        0
      ],
      "type": "SCALAR"
    },
    {
      "bufferView": 2,
      "byteOffset": 4718304,
      "componentType": 5126,
      "count": 65532,
      "max": [
        0.85893899202346802,
        0.71204900741577148,
        1.2538739442825317
      ],
      "min": [
        0.17446699738502502,
        0.29574799537658691,
        0.17252199351787567
      ],
      "type": "VEC3"
    },
    {
      "bufferView": 2,
      "byteOffset": 5504688,
      "componentType": 5126,
      "count": 65532,
      "max": [
        0.99997717142105103,
        0.99997419118881226,
        0.9999229907989502
      ],
      "min": [
        -0.99992829561233521,
        -0.99999582767486572,
        -0.99962639808654785
      ],
      "type": "VEC3"
    },
    {
      "bufferView": 3,
      "byteOffset": 3145536,
      "componentType": 5126,
      "count": 65532,
      "max": [
        0.99999505281448364,
        0.99999034404754639,
        0.99999231100082397,
        1
      ],
      "min": [
        -0.99996495246887207,
        -0.99995946884155273,
        -0.99997687339782715,
        -1
      ],
      "type": "VEC4"
    },
    {
      "bufferView": 1,
      "byteOffset": 1572768,
      "componentType": 5126,
      "count": 65532,
      "max": [
        0.99926799535751343,
        0.998757004737854
      ],
      "min": [
        0.00073199998587369919,
        0.00074599997606128454
      ],
      "type": "VEC2"
    },
    {
      "bufferView": 0,
      "byteOffset": 3964896,
      "componentType": 5125,
      "count": 329091,
      "max": [
        65531
      ],
      "min": [
        0
      ],
      "type": "SCALAR"
    },
    {
      "bufferView": 2,
      "byteOffset": 6291072,
      "componentType": 5126,
      "count": 19821,
      "max": [
        0.69592201709747314,
        0.55396300554275513,
        0.73801994323730469
      ],
      "min": [
        0.16658899188041687,
        0.11568799614906311,
        0.1026030033826828
      ],
      "type": "VEC3"
    },
    {
      "bufferView": 2,
      "byteOffset": 6528924,
      "componentType": 5126,
      "count": 19821,
      "max": [
        0.99997144937515259,
        0.99622315168380737,
        0.99995881319046021
      ],
      "min": [
        -0.99964600801467896,
        -0.99997806549072266,
        -0.99967533349990845
      ],
      "type": "VEC3"
    },
    {
      "bufferView": 3,
      "byteOffset": 4194048,
      "componentType": 5126,
      "count": 19821,
      "max": [
        0.99999737739562988,
        0.999988853931427,
        0.99992460012435913,
        1
      ],
      "min": [
        -0.99992841482162476,
        -0.99998867511749268,
        -0.9999244213104248,
        -1
      ],
      "type": "VEC4"
    },
    {
      "bufferView": 1,
      "byteOffset": 2097024,
      "componentType": 5126,
      "count": 19821,
      "max": [
        0.99926799535751343,
        0.99813598394393921
      ],
      "min": [
        0.00073199998587369919,
        0.092840999364852905
      ],
      "type": "VEC2"
    },
    {
      "bufferView": 0,
      "byteOffset": 5281260,
      "componentType": 5125,
      "count": 100269,
      "max": [
        19820
      ],
      "min": [
        0
      ],
      "type": "SCALAR"
    }
  ],
  "asset": {
    "extras": {
      "author": "Geoffrey Marchal (https://sketchfab.com/geoffreymarchal)",
      "license": "CC-BY-NC-4.0 (http://creativecommons.org/licenses/by-nc/4.0/)",
      "source": "https://sketchfab.com/3d-models/guanyin-9db9a5dfb6744a5586dfcb96cb8a7dc5",
      "title": "Guanyin"
    },
    "generator": "Sketchfab-5.0.1",
    "version": "2.0"
  },
  "bufferViews": [
    {
      "buffer": 0,
      "byteLength": 5682336,
      "byteOffset": 0,
      "name": "floatBufferViews",
      "target": 34963
    },
    {
      "buffer": 0,
      "byteLength": 2255592,
      "byteOffset": 5682336,
      "byteStride": 8,
      "name": "floatBufferViews",
      "target": 34962
    },
    {
      "buffer": 0,
      "byteLength": 6766776,
      "byteOffset": 7937928,
      "byteStride": 12,
      "name": "floatBufferViews",
      "target": 34962
    },
    {
      "buffer": 0,
      "byteLength": 4511184,
      "byteOffset": 14704704,
      "byteStride": 16,
      "name": "floatBufferViews",
      "target": 34962
    }
  ],
  "buffers": [
    {
      "byteLength": 19215888,
      "uri": "scene.bin"
    }
  ],
  "images": [
    {
      "uri": "textures/Material_0_baseColor.jpeg"
    },
    {
      "uri": "textures/Material_0_metallicRoughness.png"
    }
  ],
  "materials": [
    {
      "doubleSided": true,
      "name": "Material_0",
      "pbrMetallicRoughness": {
        "baseColorFactor": [
          1,
          1,
          1,
          1
        ],
        "baseColorTexture": {
          "index": 0,
          "texCoord": 0
        },
        "metallicFactor": 0,
        "metallicRoughnessTexture": {
          "index": 1,
          "texCoord": 0
        },
        "roughnessFactor": 1
      }
    }
  ],
  "meshes": [
    {
      "primitives": [
        {
          "attributes": {
            "NORMAL": 1,
            "POSITION": 0,
            "TANGENT": 2,
            "TEXCOORD_0": 3
          },
          "indices": 4,
          "material": 0,
          "mode": 4
        }
      ]
    },
    {
      "primitives": [
        {
          "attributes": {
            "NORMAL": 6,
            "POSITION": 5,
            "TANGENT": 7,
            "TEXCOORD_0": 8
          },
          "indices": 9,
          "material": 0,
          "mode": 4
        }
      ]
    },
    {
      "primitives": [
        {
          "attributes": {
            "NORMAL": 11,
            "POSITION": 10,
            "TANGENT": 12,
            "TEXCOORD_0": 13
          },
          "indices": 14,
          "material": 0,
          "mode": 4
        }
      ]
    },
    {
      "primitives": [
        {
          "attributes": {
            "NORMAL": 16,
            "POSITION": 15,
            "TANGENT": 17,
            "TEXCOORD_0": 18
          },
          "indices": 19,
          "material": 0,
          "mode": 4
        }
      ]
    },
    {
      "primitives": [
        {
          "attributes": {
            "NORMAL": 21,
            "POSITION": 20,
            "TANGENT": 22,
            "TEXCOORD_0": 23
          },
          "indices": 24,
          "material": 0,
          "mode": 4
        }
      ]
    }
  ],
  "nodes": [
    {
      "children": [
        1
      ],
      "name": "RootNode (gltf orientation matrix)",
      "rotation": [
        -0.70710678118654746,
        -0,
        -0,
        0.70710678118654757
      ]
    },
    {
      "children": [
        2
      ],
      "matrix": [
        0.99952703714370728,
        0.00086954951984807849,
        0.030740190297365189,
        0,
        0.00060326099628582597,
        0.99885338544845581,
        -0.047869842499494553,
        0,
        -0.030746567994356155,
        0.047865748405456543,
        0.99838042259216309,
        0,
        0.019924812018871307,
        -0.031024845317006111,
        -0.00038868701085448265,
        1
      ],
      "name": "RootNode (model correction matrix)"
    },
    {
      "children": [
        3
      ],
      "matrix": [
        1,
        0,
        0,
        0,
        0,
        1,
        0,
        0,
        0,
        0,
        1,
        0,
        -0.51080799102783203,
        -0.4535059928894043,
        0.0020580000709742308,
        1
      ],
      "name": "guanyinyblender.obj.cleaner.gles"
    },
    {
      "children": [
        4,
        5,
        6,
        7,
        8
      ],
      "name": ""
    },
    {
      "mesh": 0,
      "name": ""
    },
    {
      "mesh": 1,
      "name": ""
    },
    {
      "mesh": 2,
      "name": ""
    },
    {
      "mesh": 3,
      "name": ""
    },
    {
      "mesh": 4,
      "name": ""
    }
  ],
  "samplers": [
    {
      "magFilter": 9729,
      "minFilter": 9987,
      "wrapS": 10497,
      "wrapT": 10497
    },
    {
      "magFilter": 9728,
      "minFilter": 9728,
      "wrapS": 10497,
      "wrapT": 10497
    }
  ],
  "scene": 0,
  "scenes": [
    {
      "name": "OSG_Scene",
      "nodes": [
        0
      ]
    }
  ],
  "textures": [
    {
      "sampler": 0,
      "source": 0
    },
    {
      "sampler": 1,
      "source": 1
    }
  ]
}

