{
  "accessors": [
    {
      "bufferView": 2,
      "componentType": 5126,
      "count": 1101,
      "max": [
        8.8881597518920898,
        -6.7716197967529297,
        7.4285798072814941
      ],
      "min": [
        -9.6491098403930664,
        -35.170398712158203,
        -6.9706301689147949
      ],
      "type": "VEC3"
    },
    {
      "bufferView": 2,
      "byteOffset": 13212,
      "componentType": 5126,
      "count": 1101,
      "max": [
        0.066225267946720123,
        1,
        0.10103398561477661
      ],
      "min": [
        -0.36163491010665894,
        -1,
        -0.65630799531936646
      ],
      "type": "VEC3"
    },
    {
      "bufferView": 1,
      "componentType": 5126,
      "count": 1101,
      "max": [
        0,
        0
      ],
      "min": [
        0,
        0
      ],
      "type": "VEC2"
    },
    {
      "bufferView": 0,
      "componentType": 5125,
      "count": 2964,
      "max": [
        1100
      ],
      "min": [
        0
      ],
      "type": "SCALAR"
    },
    {
      "bufferView": 2,
      "byteOffset": 26424,
      "componentType": 5126,
      "count": 8099,
      "max": [
        9.0029296875,
        -6.771629810333252,
        7.4856600761413574
      ],
      "min": [
        -9.5448398590087891,
        -35.170398712158203,
        -6.9851198196411133
      ],
      "type": "VEC3"
    },
    {
      "bufferView": 2,
      "byteOffset": 123612,
      "componentType": 5126,
      "count": 8099,
      "max": [
        0.99999654293060303,
        0.71739399433135986,
        0.99999362230300903
      ],
      "min": [
        -0.99997621774673462,
        -0.99938333034515381,
        -0.99999862909317017
      ],
      "type": "VEC3"
    },
    {
      "bufferView": 3,
      "componentType": 5126,
      "count": 8099,
      "max": [
        0.99749994277954102,
        0.99999713897705078,
        0.99753791093826294,
        1
      ],
      "min": [
        -0.99707049131393433,
        -0.99897658824920654,
        -0.99855917692184448,
        -1
      ],
      "type": "VEC4"
    },
    {
      "bufferView": 1,
      "byteOffset": 8808,
      "componentType": 5126,
      "count": 8099,
      "max": [
        0.90333497524261475,
        0.99431401491165161
      ],
      "min": [
        0.0019956799224019051,
        0.043897900730371475
      ],
      "type": "VEC2"
    },
    {
      "bufferView": 0,
      "byteOffset": 11856,
      "componentType": 5125,
      "count": 42786,
      "max": [
        8098
      ],
      "min": [
        0
      ],
      "type": "SCALAR"
    },
    {
      "bufferView": 2,
      "byteOffset": 220800,
      "componentType": 5126,
      "count": 1619,
      "max": [
        8.8977298736572266,
        -6.7716197967529297,
        7.470059871673584
      ],
      "min": [
        -9.6630802154541016,
        -35.170398712158203,
        -6.9768199920654297
      ],
      "type": "VEC3"
    },
    {
      "bufferView": 2,
      "byteOffset": 240228,
      "componentType": 5126,
      "count": 1619,
      "max": [
        0.049604780972003937,
        1,
        0.093531176447868347
      ],
      "min": [
        -0.53441274166107178,
        -1,
        -0.19616691768169403
      ],
      "type": "VEC3"
    },
    {
      "bufferView": 1,
      "byteOffset": 73600,
      "componentType": 5126,
      "count": 1619,
      "max": [
        0,
        0
      ],
      "min": [
        0,
        0
      ],
      "type": "VEC2"
    },
    {
      "bufferView": 0,
      "byteOffset": 183000,
      "componentType": 5125,
      "count": 5331,
      "max": [
        1618
      ],
      "min": [
        0
      ],
      "type": "SCALAR"
    },
    {
      "bufferView": 2,
      "byteOffset": 259656,
      "componentType": 5126,
      "count": 6986,
      "max": [
        8.7752399444580078,
        -6.771629810333252,
        7.5531902313232422
      ],
      "min": [
        -9.8160600662231445,
        -35.170398712158203,
        -6.8572602272033691
      ],
      "type": "VEC3"
    },
    {
      "bufferView": 2,
      "byteOffset": 343488,
      "componentType": 5126,
      "count": 6986,
      "max": [
        0.99945265054702759,
        0.94881945848464966,
        0.99999737739562988
      ],
      "min": [
        -0.9999651312828064,
        -0.99938333034515381,
        -0.99990963935852051
      ],
      "type": "VEC3"
    },
    {
      "bufferView": 3,
      "byteOffset": 129584,
      "componentType": 5126,
      "count": 6986,
      "max": [
        0.99985766410827637,
        0.99999678134918213,
        0.99025744199752808,
        1
      ],
      "min": [
        -0.99630105495452881,
        -0.83209007978439331,
        -0.99132561683654785,
        -1
      ],
      "type": "VEC4"
    },
    {
      "bufferView": 1,
      "byteOffset": 86552,
      "componentType": 5126,
      "count": 6986,
      "max": [
        0.99534302949905396,
        0.99607700109481812
      ],
      "min": [
        0.0021827800665050745,
        0.10292199999094009
      ],
      "type": "VEC2"
    },
    {
      "bufferView": 0,
      "byteOffset": 204324,
      "componentType": 5125,
      "count": 37821,
      "max": [
        6985
      ],
      "min": [
        0
      ],
      "type": "SCALAR"
    }
  ],
  "asset": {
    "extras": {
      "author": "The British Museum (https://sketchfab.com/britishmuseum)",
      "license": "CC-BY-NC-SA-4.0 (http://creativecommons.org/licenses/by-nc-sa/4.0/)",
      "source": "https://sketchfab.com/models/42cc89bb3fd840d7b0356bd536379a92",
      "title": "Statue of Ramesses II, the 'Younger Memnon'"
    },
    "generator": "Sketchfab-3.20.7",
    "version": "2.0"
  },
  "bufferViews": [
    {
      "buffer": 0,
      "byteLength": 355608,
      "byteOffset": 0,
      "name": "floatBufferViews",
      "target": 34963
    },
    {
      "buffer": 0,
      "byteLength": 142440,
      "byteOffset": 355608,
      "byteStride": 8,
      "name": "floatBufferViews",
      "target": 34962
    },
    {
      "buffer": 0,
      "byteLength": 427320,
      "byteOffset": 498048,
      "byteStride": 12,
      "name": "floatBufferViews",
      "target": 34962
    },
    {
      "buffer": 0,
      "byteLength": 241360,
      "byteOffset": 925368,
      "byteStride": 16,
      "name": "floatBufferViews",
      "target": 34962
    }
  ],
  "buffers": [
    {
      "byteLength": 1166728,
      "uri": "scene.bin"
    }
  ],
  "images": [
    {
      "uri": "textures/Texture_1_emissive.jpeg"
    },
    {
      "uri": "textures/Texture_1_baseColor.jpeg"
    },
    {
      "uri": "textures/Texture_0_emissive.jpeg"
    },
    {
      "uri": "textures/Texture_0_baseColor.jpeg"
    }
  ],
  "materials": [
    {
      "doubleSided": true,
      "emissiveFactor": [
        0.20000000000000001,
        0.20000000000000001,
        0.20000000000000001
      ],
      "emissiveTexture": {
        "index": 2,
        "texCoord": 0
      },
      "name": "Texture_0",
      "pbrMetallicRoughness": {
        "baseColorFactor": [
          1,
          1,
          1,
          1
        ],
        "baseColorTexture": {
          "index": 3,
          "texCoord": 0
        },
        "metallicFactor": 0,
        "roughnessFactor": 0.59999999999999998
      }
    },
    {
      "doubleSided": true,
      "emissiveFactor": [
        0.20000000000000001,
        0.20000000000000001,
        0.20000000000000001
      ],
      "emissiveTexture": {
        "index": 0,
        "texCoord": 0
      },
      "name": "Texture_1",
      "pbrMetallicRoughness": {
        "baseColorFactor": [
          1,
          1,
          1,
          1
        ],
        "baseColorTexture": {
          "index": 1,
          "texCoord": 0
        },
        "metallicFactor": 0,
        "roughnessFactor": 0.59999999999999998
      }
    }
  ],
  "meshes": [
    {
      "primitives": [
        {
          "attributes": {
            "NORMAL": 1,
            "POSITION": 0,
            "TEXCOORD_0": 2
          },
          "indices": 3,
          "material": 0,
          "mode": 4
        }
      ]
    },
    {
      "primitives": [
        {
          "attributes": {
            "NORMAL": 5,
            "POSITION": 4,
            "TANGENT": 6,
            "TEXCOORD_0": 7
          },
          "indices": 8,
          "material": 0,
          "mode": 4
        }
      ]
    },
    {
      "primitives": [
        {
          "attributes": {
            "NORMAL": 10,
            "POSITION": 9,
            "TEXCOORD_0": 11
          },
          "indices": 12,
          "material": 1,
          "mode": 4
        }
      ]
    },
    {
      "primitives": [
        {
          "attributes": {
            "NORMAL": 14,
            "POSITION": 13,
            "TANGENT": 15,
            "TEXCOORD_0": 16
          },
          "indices": 17,
          "material": 1,
          "mode": 4
        }
      ]
    }
  ],
  "nodes": [
    {
      "children": [
        1
      ],
      "name": "RootNode (gltf orientation matrix)",
      "rotation": [
        -0.70710678118654746,
        -0,
        -0,
        0.70710678118654757
      ]
    },
    {
      "children": [
        2
      ],
      "matrix": [
        1,
        0,
        0,
        0,
        0,
        0,
        -1,
        0,
        0,
        1,
        0,
        0,
        0,
        0,
        0,
        1
      ],
      "name": "RootNode (model correction matrix)"
    },
    {
      "children": [
        3,
        4,
        5,
        6
      ],
      "name": "sculpt.obj.cleaner.materialmerger.gles"
    },
    {
      "mesh": 0,
      "name": ""
    },
    {
      "mesh": 1,
      "name": ""
    },
    {
      "mesh": 2,
      "name": ""
    },
    {
      "mesh": 3,
      "name": ""
    }
  ],
  "samplers": [
    {
      "magFilter": 9729,
      "minFilter": 9987,
      "wrapS": 10497,
      "wrapT": 10497
    }
  ],
  "scene": 0,
  "scenes": [
    {
      "name": "OSG_Scene",
      "nodes": [
        0
      ]
    }
  ],
  "textures": [
    {
      "sampler": 0,
      "source": 0
    },
    {
      "sampler": 0,
      "source": 1
    },
    {
      "sampler": 0,
      "source": 2
    },
    {
      "sampler": 0,
      "source": 3
    }
  ]
}

