{
  "accessors": [
    {
      "bufferView": 2,
      "componentType": 5126,
      "count": 3526,
      "max": [
        1.2983690500259399,
        1.1701619625091553,
        1.9245369434356689
      ],
      "min": [
        -1.2941659688949585,
        -1.8578460216522217,
        -0.97980600595474243
      ],
      "type": "VEC3"
    },
    {
      "bufferView": 2,
      "byteOffset": 42312,
      "componentType": 5126,
      "count": 3526,
      "max": [
        0.99976497888565063,
        0.99922055006027222,
        0.9997285008430481
      ],
      "min": [
        -0.99949163198471069,
        -0.99994522333145142,
        -0.99911326169967651
      ],
      "type": "VEC3"
    },
    {
      "bufferView": 3,
      "componentType": 5126,
      "count": 3526,
      "max": [
        0.99373036623001099,
        0.99996685981750488,
        0.99969077110290527,
        1
      ],
      "min": [
        -0.99936783313751221,
        -0.99801009893417358,
        -0.99953383207321167,
        -1
      ],
      "type": "VEC4"
    },
    {
      "bufferView": 1,
      "componentType": 5126,
      "count": 3526,
      "max": [
        0.91804802417755127,
        0.90393102169036865
      ],
      "min": [
        0.081362999975681305,
        0.093603998422622681
      ],
      "type": "VEC2"
    },
    {
      "bufferView": 0,
      "componentType": 5125,
      "count": 20943,
      "max": [
        3525
      ],
      "min": [
        0
      ],
      "type": "SCALAR"
    },
    {
      "bufferView": 2,
      "byteOffset": 84624,
      "componentType": 5126,
      "count": 1058,
      "max": [
        1.2556439638137817,
        1.0301480293273926,
        0.48300200700759888
      ],
      "min": [
        -1.2580200433731079,
        -1.5498919486999512,
        -3.3193240165710449
      ],
      "type": "VEC3"
    },
    {
      "bufferView": 2,
      "byteOffset": 97320,
      "componentType": 5126,
      "count": 1058,
      "max": [
        0.99503737688064575,
        0.99969333410263062,
        0.9950452446937561
      ],
      "min": [
        -0.99503737688064575,
        -0.98957198858261108,
        -0.9950452446937561
      ],
      "type": "VEC3"
    },
    {
      "bufferView": 3,
      "byteOffset": 56416,
      "componentType": 5126,
      "count": 1058,
      "max": [
        0.99995344877243042,
        0.99169045686721802,
        0.99903750419616699,
        1
      ],
      "min": [
        -0.99914753437042236,
        -0.99442517757415771,
        -0.99945855140686035,
        -1
      ],
      "type": "VEC4"
    },
    {
      "bufferView": 1,
      "byteOffset": 28208,
      "componentType": 5126,
      "count": 1058,
      "max": [
        0.99080902338027954,
        0.99297600984573364
      ],
      "min": [
        0.015014000236988068,
        0.015003999695181847
      ],
      "type": "VEC2"
    },
    {
      "bufferView": 0,
      "byteOffset": 83772,
      "componentType": 5125,
      "count": 5592,
      "max": [
        1057
      ],
      "min": [
        0
      ],
      "type": "SCALAR"
    },
    {
      "bufferView": 2,
      "byteOffset": 110016,
      "componentType": 5126,
      "count": 3498,
      "max": [
        1.6125819683074951,
        1.1457860469818115,
        1.6432299613952637
      ],
      "min": [
        -1.6143369674682617,
        -1.6564710140228271,
        -3.3193240165710449
      ],
      "type": "VEC3"
    },
    {
      "bufferView": 2,
      "byteOffset": 151992,
      "componentType": 5126,
      "count": 3498,
      "max": [
        0.99975734949111938,
        0.99983721971511841,
        0.99918162822723389
      ],
      "min": [
        -0.99877989292144775,
        -0.99963301420211792,
        -0.99949324131011963
      ],
      "type": "VEC3"
    },
    {
      "bufferView": 3,
      "byteOffset": 73344,
      "componentType": 5126,
      "count": 3498,
      "max": [
        0.99979180097579956,
        0.99947464466094971,
        0.9999544620513916,
        1
      ],
      "min": [
        -0.99999958276748657,
        -0.99899768829345703,
        -0.99938374757766724,
        -1
      ],
      "type": "VEC4"
    },
    {
      "bufferView": 1,
      "byteOffset": 36672,
      "componentType": 5126,
      "count": 3498,
      "max": [
        0.84491598606109619,
        0.9746289849281311
      ],
      "min": [
        0.012648999691009521,
        0.1134679988026619
      ],
      "type": "VEC2"
    },
    {
      "bufferView": 0,
      "byteOffset": 106140,
      "componentType": 5125,
      "count": 19986,
      "max": [
        3497
      ],
      "min": [
        0
      ],
      "type": "SCALAR"
    }
  ],
  "asset": {
    "extras": {
      "author": "kling klong (https://sketchfab.com/kling)",
      "license": "CC-BY-4.0 (http://creativecommons.org/licenses/by/4.0/)",
      "source": "https://sketchfab.com/models/bc675241a3094b34b213bcf3ee1e08ed",
      "title": "Tyrion Lannister FanArt Lowpoly Game of Thrones"
    },
    "generator": "Sketchfab-3.18.1",
    "version": "2.0"
  },
  "bufferViews": [
    {
      "buffer": 0,
      "byteLength": 186084,
      "byteOffset": 0,
      "name": "floatBufferViews",
      "target": 34963
    },
    {
      "buffer": 0,
      "byteLength": 64656,
      "byteOffset": 186084,
      "byteStride": 8,
      "name": "floatBufferViews",
      "target": 34962
    },
    {
      "buffer": 0,
      "byteLength": 193968,
      "byteOffset": 250740,
      "byteStride": 12,
      "name": "floatBufferViews",
      "target": 34962
    },
    {
      "buffer": 0,
      "byteLength": 129312,
      "byteOffset": 444708,
      "byteStride": 16,
      "name": "floatBufferViews",
      "target": 34962
    }
  ],
  "buffers": [
    {
      "byteLength": 574020,
      "uri": "scene.bin"
    }
  ],
  "images": [
    {
      "uri": "textures/lambert6SG_baseColor.jpg"
    },
    {
      "uri": "textures/lambert6SG_normal.jpg"
    },
    {
      "uri": "textures/lambert5SG_baseColor.jpg"
    },
    {
      "uri": "textures/lambert5SG_normal.jpg"
    }
  ],
  "materials": [
    {
      "doubleSided": true,
      "emissiveFactor": [
        0,
        0,
        0
      ],
      "name": "lambert5SG",
      "normalTexture": {
        "index": 3,
        "scale": 1,
        "texCoord": 0
      },
      "pbrMetallicRoughness": {
        "baseColorFactor": [
          1,
          1,
          1,
          1
        ],
        "baseColorTexture": {
          "index": 2,
          "texCoord": 0
        },
        "metallicFactor": 0,
        "roughnessFactor": 0.59999999999999998
      }
    },
    {
      "doubleSided": true,
      "emissiveFactor": [
        0,
        0,
        0
      ],
      "name": "lambert6SG",
      "normalTexture": {
        "index": 1,
        "scale": 1,
        "texCoord": 0
      },
      "pbrMetallicRoughness": {
        "baseColorFactor": [
          1,
          1,
          1,
          1
        ],
        "baseColorTexture": {
          "index": 0,
          "texCoord": 0
        },
        "metallicFactor": 0,
        "roughnessFactor": 0.59999999999999998
      }
    }
  ],
  "meshes": [
    {
      "primitives": [
        {
          "attributes": {
            "NORMAL": 1,
            "POSITION": 0,
            "TANGENT": 2,
            "TEXCOORD_0": 3
          },
          "indices": 4,
          "material": 0,
          "mode": 4
        }
      ]
    },
    {
      "primitives": [
        {
          "attributes": {
            "NORMAL": 6,
            "POSITION": 5,
            "TANGENT": 7,
            "TEXCOORD_0": 8
          },
          "indices": 9,
          "material": 1,
          "mode": 4
        }
      ]
    },
    {
      "primitives": [
        {
          "attributes": {
            "NORMAL": 11,
            "POSITION": 10,
            "TANGENT": 12,
            "TEXCOORD_0": 13
          },
          "indices": 14,
          "material": 1,
          "mode": 4
        }
      ]
    }
  ],
  "nodes": [
    {
      "children": [
        1
      ],
      "name": "RootNode (gltf orientation matrix)",
      "rotation": [
        -0.70710678118654746,
        -0,
        -0,
        0.70710678118654757
      ]
    },
    {
      "children": [
        2
      ],
      "name": "RootNode (model correction matrix)"
    },
    {
      "children": [
        3,
        4,
        5
      ],
      "name": "tyrion.obj.cleaner"
    },
    {
      "mesh": 0,
      "name": ""
    },
    {
      "mesh": 1,
      "name": ""
    },
    {
      "mesh": 2,
      "name": ""
    }
  ],
  "samplers": [
    {
      "magFilter": 9729,
      "minFilter": 9987,
      "wrapS": 10497,
      "wrapT": 10497
    }
  ],
  "scene": 0,
  "scenes": [
    {
      "name": "OSG_Scene",
      "nodes": [
        0
      ]
    }
  ],
  "textures": [
    {
      "sampler": 0,
      "source": 0
    },
    {
      "sampler": 0,
      "source": 1
    },
    {
      "sampler": 0,
      "source": 2
    },
    {
      "sampler": 0,
      "source": 3
    }
  ]
}

